<svg width="512" height="512" viewBox="0 0 512 512" fill="none" xmlns="http://www.w3.org/2000/svg">
  <defs>
    <linearGradient id="bg" x1="88" y1="64" x2="430" y2="448" gradientUnits="userSpaceOnUse">
      <stop stop-color="#4F8CFF"/>
      <stop offset="0.5" stop-color="#3767F5"/>
      <stop offset="1" stop-color="#6B4DFF"/>
    </linearGradient>
    <linearGradient id="shine" x1="160" y1="128" x2="350" y2="366" gradientUnits="userSpaceOnUse">
      <stop stop-color="#FFFFFF"/>
      <stop offset="1" stop-color="#DCE7FF"/>
    </linearGradient>
    <filter id="shadow" x="40" y="40" width="432" height="432" filterUnits="userSpaceOnUse" color-interpolation-filters="sRGB">
      <feDropShadow dx="0" dy="18" stdDeviation="22" flood-color="#102A66" flood-opacity="0.35"/>
    </filter>
  </defs>
  <g filter="url(#shadow)">
    <rect x="72" y="72" width="368" height="368" rx="104" fill="url(#bg)"/>
    <rect x="73" y="73" width="366" height="366" rx="103" stroke="white" stroke-opacity="0.14" stroke-width="2"/>
  </g>
  <path d="M140 174C204 112 305 99 382 145" stroke="white" stroke-opacity="0.18" stroke-width="10" stroke-linecap="round"/>
  <path d="M143 163H203L256 302L309 163H369L286 361C280 374 269 382 256 382C243 382 232 374 226 361L143 163Z" fill="url(#shine)"/>
  <path d="M206 163L256 292L306 163H338L274 325C271 333 264 338 256 338C248 338 241 333 238 325L174 163H206Z" fill="#0C1B3B" fill-opacity="0.18"/>
  <circle cx="364" cy="148" r="14" fill="#FFFFFF"/>
  <path d="M364 119V177M335 148H393" stroke="#FFFFFF" stroke-width="6" stroke-linecap="round" opacity="0.72"/>
</svg>
